# Blender 4.4.0
# www.blender.org
mtllib player.mtl
o Shuttle_Body
v 1.988398 -0.500000 0.544310
v 1.988398 0.500000 0.544310
v -2.010615 -0.500000 0.455443
v -2.010615 0.500000 0.455443
v 2.010615 -0.500000 -0.455443
v 2.010615 0.500000 -0.455443
v -1.988398 -0.500000 -0.544310
v -1.988398 0.500000 -0.544310
v 2.554925 -0.200000 -2.443841
v 2.443841 -0.200000 2.554925
v -0.488768 -0.200000 -0.510985
v -0.510985 -0.200000 0.488768
v 2.499383 0.000000 0.055542
v 3.398050 0.700000 0.125524
v 3.797951 1.700000 0.134411
v 2.598247 0.700000 0.107751
v 2.998149 1.700000 0.116638
v 3.400272 0.700000 0.025549
v 3.800173 1.700000 0.034436
v 2.600469 0.700000 0.007776
v 3.000370 1.700000 0.016662
vn -0.0222 -0.0000 0.9998
vn -0.9998 -0.0000 -0.0222
vn 0.0222 -0.0000 -0.9998
vn 0.9998 -0.0000 0.0222
vn -0.0000 -1.0000 -0.0000
vn -0.0000 1.0000 -0.0000
vn -0.9282 0.3714 -0.0206
vn 0.9282 -0.3714 0.0206
vt 0.571429 0.571428
vt 0.428571 0.571428
vt 0.428571 -0.000000
vt 0.571429 0.000000
vt 0.140279 0.857143
vt -0.000000 0.857143
vt 0.000000 0.714286
vt 0.140279 0.714286
vt 0.714286 0.571428
vt 0.571428 0.571428
vt 0.571429 -0.000000
vt 0.714286 0.000000
vt 0.781074 0.714286
vt 0.640795 0.714286
vt 0.640795 0.571428
vt 0.781074 0.571428
vt 0.857143 0.571428
vt 0.714286 0.571428
vt 0.714286 0.000000
vt 0.857143 0.000000
vt 1.000000 0.571428
vt 1.000000 0.000000
vt 0.000000 0.000000
vt 0.428571 0.285714
vt 0.428571 0.428571
vt 0.000000 0.714286
vt 0.428571 0.725290
vt 0.428572 0.571429
vt 0.534683 0.613873
vt 0.534683 0.767735
vt 0.781074 0.722514
vt 0.781074 0.571428
vt 0.795360 0.571428
vt 0.795360 0.722514
vt 0.534683 0.767735
vt 0.534683 0.613873
vt 0.640795 0.571428
vt 0.640795 0.725290
vt 0.809646 0.571428
vt 0.809646 0.722514
vt 0.823931 0.685714
vt 0.809646 0.685714
vt 0.823931 0.571428
vt 0.823931 0.800000
vt 0.809646 0.800000
vt 0.809646 0.685714
vt 0.823931 0.685714
s 0
usemtl マテリアル.002
f 1/1/1 2/2/1 4/3/1 3/4/1
f 3/5/2 4/6/2 8/7/2 7/8/2
f 7/9/3 8/10/3 6/11/3 5/12/3
f 5/13/4 6/14/4 2/15/4 1/16/4
f 3/17/5 7/18/5 5/19/5 1/20/5
f 8/21/6 4/17/6 2/20/6 6/22/6
f 9/23/6 11/24/6 12/25/6 10/26/6
f 14/27/1 15/28/1 17/29/1 16/30/1
f 16/31/7 17/32/7 21/33/7 20/34/7
f 20/35/3 21/36/3 19/37/3 18/38/3
f 18/34/8 19/33/8 15/39/8 14/40/8
f 16/41/5 20/42/5 18/39/5 14/43/5
f 21/44/6 17/45/6 15/46/6 19/47/6
