# Blender 4.4.0
# www.blender.org
mtllib enemy.mtl
o UFO_Spin
v 0.500000 0.993837 0.000000
v 1.000000 -0.598177 0.000000
v 0.433013 0.993837 -0.250000
v 0.866025 0.200000 -0.500000
v 2.165063 0.000000 -1.250000
v 0.866025 -0.598177 -0.500000
v 0.250000 0.993837 -0.433013
v 0.500000 0.200000 -0.866025
v 1.250000 0.000000 -2.165063
v 0.500000 -0.598177 -0.866025
v 0.000000 0.993837 -0.500000
v 0.000000 0.200000 -1.000000
v 0.000000 0.000000 -2.500000
v 0.000000 -0.598177 -1.000000
v -0.250000 0.993837 -0.433013
v -0.500000 0.200000 -0.866025
v -1.250000 0.000000 -2.165063
v -0.500000 -0.598177 -0.866025
v -0.433013 0.993837 -0.250000
v -0.866025 0.200000 -0.500000
v -2.165063 0.000000 -1.250000
v -0.866025 -0.598177 -0.500000
v -0.500000 0.993837 0.000000
v -1.000000 0.200000 0.000000
v -2.500000 0.000000 0.000000
v -1.000000 -0.598177 0.000000
v 0.000000 0.873955 0.000000
v -0.433013 0.993837 0.250000
v -0.866025 0.200000 0.500000
v -2.165063 0.000000 1.250000
v -0.866025 -0.598177 0.500000
v -0.250000 0.993837 0.433013
v -0.500000 0.200000 0.866025
v -1.250000 0.000000 2.165063
v -0.500000 -0.598177 0.866025
v 0.000000 0.993837 0.500000
v 0.000000 0.200000 1.000000
v 0.000000 0.000000 2.500000
v 0.000000 -0.598177 1.000000
v 0.250000 0.993837 0.433013
v 0.500000 0.200000 0.866025
v 1.250000 0.000000 2.165063
v 0.500000 -0.598177 0.866025
v 0.433013 0.993837 0.250000
v 0.866025 0.200000 0.500000
v 2.165063 0.000000 1.250000
v 0.866025 -0.598177 0.500000
v 1.000000 0.200000 0.000000
v 2.500000 0.000000 0.000000
v 0.616447 -0.851459 -0.000000
v 0.533859 -0.851459 -0.308223
v 0.308223 -0.851459 -0.533859
v -0.000000 -0.851459 -0.616447
v -0.308223 -0.851459 -0.533859
v -0.533859 -0.851459 -0.308223
v -0.616447 -0.851459 -0.000000
v -0.000000 -0.789815 -0.000000
v -0.533859 -0.851459 0.308223
v -0.308223 -0.851459 0.533859
v -0.000000 -0.851459 0.616447
v 0.308223 -0.851459 0.533859
v 0.533859 -0.851459 0.308223
vn 0.3686 -0.9243 -0.0988
vn 0.8252 0.5198 -0.2211
vn -0.5451 -0.8255 -0.1461
vn 0.1321 0.9906 -0.0354
vn -0.2327 0.9705 0.0624
vn -0.1704 0.9705 0.1704
vn 0.2698 -0.9243 -0.2698
vn 0.6041 0.5198 -0.6041
vn 0.5451 -0.8255 -0.1461
vn 0.0967 0.9906 -0.0967
vn -0.0624 0.9705 0.2327
vn 0.0988 -0.9243 -0.3686
vn 0.2211 0.5198 -0.8252
vn -0.3991 -0.8255 -0.3991
vn 0.0354 0.9906 -0.1321
vn 0.0624 0.9705 0.2327
vn -0.0988 -0.9243 -0.3686
vn -0.2211 0.5198 -0.8252
vn -0.1461 -0.8255 -0.5451
vn -0.0354 0.9906 -0.1321
vn 0.1704 0.9705 0.1704
vn -0.2698 -0.9243 -0.2698
vn -0.6041 0.5198 -0.6041
vn 0.3991 -0.8255 0.3991
vn -0.0967 0.9906 -0.0967
vn 0.2327 0.9705 0.0624
vn -0.3686 -0.9243 -0.0988
vn -0.8252 0.5198 -0.2211
vn 0.1461 -0.8255 -0.5451
vn -0.1321 0.9906 -0.0354
vn 0.2327 0.9705 -0.0624
vn -0.3686 -0.9243 0.0988
vn -0.8252 0.5198 0.2211
vn 0.1461 -0.8255 0.5451
vn -0.1321 0.9906 0.0354
vn 0.1704 0.9705 -0.1704
vn -0.2698 -0.9243 0.2698
vn -0.6041 0.5198 0.6041
vn 0.3991 -0.8255 -0.3991
vn -0.0967 0.9906 0.0967
vn 0.0624 0.9705 -0.2327
vn -0.0988 -0.9243 0.3686
vn -0.2211 0.5198 0.8252
vn -0.1461 -0.8255 0.5451
vn -0.0354 0.9906 0.1321
vn -0.0624 0.9705 -0.2327
vn 0.0988 -0.9243 0.3686
vn 0.2211 0.5198 0.8252
vn -0.3991 -0.8255 0.3991
vn 0.0354 0.9906 0.1321
vn -0.1704 0.9705 -0.1704
vn 0.2698 -0.9243 0.2698
vn 0.6041 0.5198 0.6041
vn -0.5451 -0.8255 0.1461
vn 0.0967 0.9906 0.0967
vn -0.2327 0.9705 -0.0624
vn 0.3686 -0.9243 0.0988
vn 0.8252 0.5198 0.2211
vn 0.5451 -0.8255 0.1461
vn 0.1321 0.9906 0.0354
vn -0.0995 -0.9947 0.0267
vn -0.0728 -0.9947 0.0728
vn -0.0267 -0.9947 0.0995
vn 0.0267 -0.9947 0.0995
vn 0.0728 -0.9947 0.0728
vn 0.0995 -0.9947 0.0267
vn 0.0995 -0.9947 -0.0267
vn 0.0728 -0.9947 -0.0728
vn 0.0267 -0.9947 -0.0995
vn -0.0267 -0.9947 -0.0995
vn -0.0728 -0.9947 -0.0728
vn -0.0995 -0.9947 -0.0267
vt 0.505552 0.185045
vt 0.666937 0.279868
vt 0.505552 0.320507
vt 0.279868 0.353886
vt 0.239230 0.303331
vt 0.266322 0.303331
vt 0.838219 0.326794
vt 0.832313 0.269477
vt 0.864717 0.279868
vt 0.320507 0.505552
vt 0.225683 0.353886
vt 0.252776 0.252776
vt 0.215767 0.289785
vt 0.571795 0.437821
vt 0.666937 0.225683
vt 0.710393 0.269477
vt 0.185045 0.505552
vt 0.178758 0.326794
vt 0.202221 0.266322
vt 0.739330 0.353886
vt 0.686532 0.505552
vt 0.787687 0.315105
vt 0.815979 0.298404
vt 0.000000 0.320507
vt 0.151666 0.279868
vt 0.202221 0.239230
vt 0.792324 0.353886
vt 0.819019 0.505552
vt 0.000000 0.185045
vt 0.151666 0.225683
vt 0.215767 0.215767
vt 0.933756 0.437821
vt 0.693435 0.178758
vt 0.755019 0.190447
vt 0.726727 0.207148
vt 0.178758 0.178758
vt 0.239230 0.202221
vt 1.000000 0.320507
vt 0.693435 0.326794
vt 0.755019 0.315105
vt 0.067731 0.067731
vt 0.225683 0.151666
vt 0.266322 0.202221
vt 0.864717 0.225684
vt 1.000000 0.185045
vt 0.792325 0.151666
vt 0.739330 0.151666
vt 0.185045 0.000000
vt 0.279868 0.151666
vt 0.289785 0.215767
vt 0.933757 0.067731
vt 0.726727 0.298404
vt 0.320507 0.000000
vt 0.326794 0.178758
vt 0.303331 0.239230
vt 0.819019 0.000000
vt 0.838219 0.178758
vt 0.787688 0.190447
vt 0.505552 0.185045
vt 0.353886 0.225683
vt 0.303331 0.266322
vt 0.686532 0.000000
vt 0.832313 0.236075
vt 0.815979 0.207148
vt 0.505552 0.320507
vt 0.353886 0.279868
vt 0.289785 0.289785
vt 0.571795 0.067731
vt 0.326794 0.326794
vt 0.710393 0.236075
vt 0.437821 0.437821
vt 0.770008 0.252776
vt 0.067731 0.437821
vt 0.437821 0.067731
s 0
usemtl マテリアル
f 49/1/1 6/2/1 5/3/1
f 48/4/2 3/5/2 1/6/2
f 22/7/3 56/8/3 26/9/3
f 49/10/4 4/11/4 48/4/4
f 27/12/5 1/6/5 3/5/5
f 27/12/6 3/5/6 7/13/6
f 6/2/7 9/14/7 5/3/7
f 4/11/8 7/13/8 3/5/8
f 2/15/9 51/16/9 6/2/9
f 5/17/10 8/18/10 4/11/10
f 27/12/11 7/13/11 11/19/11
f 9/14/12 14/20/12 13/21/12
f 8/18/13 11/19/13 7/13/13
f 22/7/14 54/22/14 55/23/14
f 8/18/15 13/24/15 12/25/15
f 27/12/16 11/19/16 15/26/16
f 13/21/17 18/27/17 17/28/17
f 12/25/18 15/26/18 11/19/18
f 14/20/19 54/22/19 18/27/19
f 12/25/20 17/29/20 16/30/20
f 27/12/21 15/26/21 19/31/21
f 18/27/22 21/32/22 17/28/22
f 16/30/23 19/31/23 15/26/23
f 47/33/24 61/34/24 62/35/24
f 17/29/25 20/36/25 16/30/25
f 27/12/26 19/31/26 23/37/26
f 22/7/27 25/38/27 21/32/27
f 20/36/28 23/37/28 19/31/28
f 10/39/29 53/40/29 14/20/29
f 21/41/30 24/42/30 20/36/30
f 27/12/31 23/37/31 28/43/31
f 25/38/32 31/44/32 30/45/32
f 24/42/33 28/43/33 23/37/33
f 39/46/34 61/34/34 43/47/34
f 25/48/35 29/49/35 24/42/35
f 27/12/36 28/43/36 32/50/36
f 31/44/37 34/51/37 30/45/37
f 29/49/38 32/50/38 28/43/38
f 10/39/39 51/16/39 52/52/39
f 30/53/40 33/54/40 29/49/40
f 27/12/41 32/50/41 36/55/41
f 34/51/42 39/46/42 38/56/42
f 33/54/43 36/55/43 32/50/43
f 35/57/44 60/58/44 39/46/44
f 33/54/45 38/59/45 37/60/45
f 27/12/46 36/55/46 40/61/46
f 38/56/47 43/47/47 42/62/47
f 37/60/48 40/61/48 36/55/48
f 35/57/49 58/63/49 59/64/49
f 37/60/50 42/65/50 41/66/50
f 27/12/51 40/61/51 44/67/51
f 43/47/52 46/68/52 42/62/52
f 41/66/53 44/67/53 40/61/53
f 26/9/54 58/63/54 31/44/54
f 42/65/55 45/69/55 41/66/55
f 27/12/56 44/67/56 1/6/56
f 47/33/57 49/1/57 46/68/57
f 45/69/58 1/6/58 44/67/58
f 47/33/59 50/70/59 2/15/59
f 46/71/60 48/4/60 45/69/60
f 50/70/61 57/72/61 51/16/61
f 51/16/62 57/72/62 52/52/62
f 52/52/63 57/72/63 53/40/63
f 53/40/64 57/72/64 54/22/64
f 54/22/65 57/72/65 55/23/65
f 55/23/66 57/72/66 56/8/66
f 56/8/67 57/72/67 58/63/67
f 58/63/68 57/72/68 59/64/68
f 59/64/69 57/72/69 60/58/69
f 60/58/70 57/72/70 61/34/70
f 61/34/71 57/72/71 62/35/71
f 62/35/72 57/72/72 50/70/72
f 49/1/1 2/15/1 6/2/1
f 48/4/2 4/11/2 3/5/2
f 22/7/3 55/23/3 56/8/3
f 49/10/4 5/17/4 4/11/4
f 6/2/7 10/39/7 9/14/7
f 4/11/8 8/18/8 7/13/8
f 2/15/9 50/70/9 51/16/9
f 5/17/10 9/73/10 8/18/10
f 9/14/12 10/39/12 14/20/12
f 8/18/13 12/25/13 11/19/13
f 22/7/14 18/27/14 54/22/14
f 8/18/15 9/73/15 13/24/15
f 13/21/17 14/20/17 18/27/17
f 12/25/18 16/30/18 15/26/18
f 14/20/19 53/40/19 54/22/19
f 12/25/20 13/24/20 17/29/20
f 18/27/22 22/7/22 21/32/22
f 16/30/23 20/36/23 19/31/23
f 47/33/24 43/47/24 61/34/24
f 17/29/25 21/41/25 20/36/25
f 22/7/27 26/9/27 25/38/27
f 20/36/28 24/42/28 23/37/28
f 10/39/29 52/52/29 53/40/29
f 21/41/30 25/48/30 24/42/30
f 25/38/32 26/9/32 31/44/32
f 24/42/33 29/49/33 28/43/33
f 39/46/34 60/58/34 61/34/34
f 25/48/35 30/53/35 29/49/35
f 31/44/37 35/57/37 34/51/37
f 29/49/38 33/54/38 32/50/38
f 10/39/39 6/2/39 51/16/39
f 30/53/40 34/74/40 33/54/40
f 34/51/42 35/57/42 39/46/42
f 33/54/43 37/60/43 36/55/43
f 35/57/44 59/64/44 60/58/44
f 33/54/45 34/74/45 38/59/45
f 38/56/47 39/46/47 43/47/47
f 37/60/48 41/66/48 40/61/48
f 35/57/49 31/44/49 58/63/49
f 37/60/50 38/59/50 42/65/50
f 43/47/52 47/33/52 46/68/52
f 41/66/53 45/69/53 44/67/53
f 26/9/54 56/8/54 58/63/54
f 42/65/55 46/71/55 45/69/55
f 47/33/57 2/15/57 49/1/57
f 45/69/58 48/4/58 1/6/58
f 47/33/59 62/35/59 50/70/59
f 46/71/60 49/10/60 48/4/60
